<svg version="1.1" id="Layer_1" xmlns="http://www.w3.org/2000/svg" xmlns:xlink="http://www.w3.org/1999/xlink" x="0px" y="0px"
	 width="100%" viewBox="0 0 500 500" enable-background="new 0 0 500 500" xml:space="preserve">
<path fill="#F8F9FA" opacity="1.000000" stroke="none" 
	d="
M501.000000,191.000000 
	C501.000000,294.666656 501.000000,397.833282 501.000000,500.999939 
	C334.333405,500.999969 167.666794,500.999969 1.000145,501.000000 
	C1.000097,334.333435 1.000097,167.666870 1.000048,1.000234 
	C167.666519,1.000156 334.333038,1.000156 500.999786,1.000078 
	C501.000000,64.166664 501.000000,127.333336 501.000000,191.000000 
M303.155487,327.590363 
	C303.826111,327.123840 304.496735,326.657288 305.865295,326.024994 
	C310.350586,324.327820 312.808746,321.742950 311.828186,316.320984 
	C309.025879,300.825775 306.555359,285.269379 304.069702,269.718597 
	C303.061066,263.408478 302.350922,257.050690 301.511261,250.761841 
	C306.499634,250.446426 310.472870,250.329407 314.415558,249.919220 
	C323.979736,248.924240 325.382233,247.384857 326.466919,237.908295 
	C345.501923,229.152161 359.810944,215.866257 366.959137,195.701370 
	C367.562683,193.998810 367.871399,191.289215 369.025391,190.830933 
	C376.462372,187.877548 376.826202,180.063995 380.646179,174.687576 
	C382.725830,171.760544 382.272827,169.649994 378.000000,170.000000 
	C378.000000,170.000000 377.998779,169.998779 377.978577,169.230118 
	C378.247742,167.601761 378.516937,165.973404 378.786102,164.345047 
	C378.338806,164.087326 377.891479,163.829620 377.444183,163.571899 
	C375.982086,165.070465 374.519958,166.569031 372.987640,167.992706 
	C372.987640,167.992706 372.911743,167.923584 372.894165,167.134262 
	C373.000946,166.313400 373.260590,165.477371 373.181091,164.674973 
	C373.037415,163.225327 372.691101,161.795761 372.429382,160.357788 
	C371.273956,161.432739 369.809601,162.325211 369.039948,163.628052 
	C368.039154,165.322067 367.590424,167.342178 366.653259,169.908844 
	C365.937469,166.286209 365.424225,163.688614 364.910980,161.091003 
	C364.212189,161.114777 363.513397,161.138535 362.814606,161.162308 
	C361.620789,166.111053 360.427002,171.059814 359.422028,175.225754 
	C356.599487,175.225754 354.556274,175.225754 352.513092,175.225754 
	C353.286987,177.264511 354.248016,179.254944 354.790100,181.353592 
	C355.569366,184.370270 357.343536,187.967529 356.393311,190.429260 
	C353.978485,196.685242 350.810944,202.812759 346.982635,208.323364 
	C341.118256,216.764801 332.410004,222.108322 323.177887,226.689438 
	C322.396210,224.868896 321.614532,223.048340 320.828857,221.218506 
	C314.916779,221.218506 309.138031,221.494614 303.396301,221.150986 
	C295.632568,220.686340 287.897247,219.745789 279.790710,218.419556 
	C277.198303,216.250229 274.605896,214.080887 271.911407,211.438416 
	C271.911407,211.438416 271.841705,210.959427 272.611023,210.729385 
	C281.509369,207.775269 290.967377,205.900177 299.186798,201.637085 
	C315.140411,193.362640 325.196838,179.853470 329.744049,162.330063 
	C336.168091,165.961472 342.919922,166.924286 350.797943,164.976196 
	C352.217438,163.640686 354.430145,162.539993 354.908020,160.925720 
	C356.354370,156.039932 357.128204,150.955063 358.610565,145.314270 
	C359.044281,137.229294 359.477997,129.144333 360.045776,120.138039 
	C358.646271,111.424614 357.246765,102.711189 356.080566,93.118805 
	C357.342194,74.579773 343.901245,68.517807 330.185608,63.083031 
	C331.082703,53.783455 329.219360,50.229416 320.537018,48.287350 
	C312.533691,46.497166 304.221558,46.087437 295.353943,44.796227 
	C291.232147,43.172180 287.110382,41.548138 282.878235,39.218380 
	C278.630035,32.650318 278.748169,31.349396 284.234833,26.082937 
	C267.904633,23.339581 251.898895,24.114809 236.300903,29.120701 
	C220.505066,34.190083 207.063019,42.732040 199.250961,58.060146 
	C197.375336,61.740322 195.047043,63.775063 191.126740,65.136650 
	C177.133499,69.996765 169.986832,79.030396 169.518341,91.405777 
	C164.473129,98.260361 164.142303,106.249321 163.823090,114.345787 
	C163.720352,114.580528 163.774445,114.732712 163.759018,115.530518 
	C163.788147,116.033798 163.817276,116.537079 163.520035,117.775291 
	C163.720444,125.177986 163.920853,132.580673 164.004303,140.841171 
	C164.683777,145.219772 164.932480,149.726761 166.186371,153.934174 
	C167.100739,157.002335 169.340164,159.675613 171.412811,162.884384 
	C171.960754,162.876328 172.508713,162.868286 173.974045,163.002762 
	C179.153229,162.786209 184.332397,162.569656 190.235840,162.662674 
	C192.113754,162.387115 193.991669,162.111542 194.864304,161.983505 
	C199.106781,170.006790 202.831573,177.749710 207.231079,185.088104 
	C209.567474,188.985229 213.073975,192.180832 215.165619,195.909103 
	C213.667786,195.974014 212.165421,195.985291 210.672821,196.111954 
	C191.285660,197.757385 171.896790,199.384048 152.514801,201.088654 
	C138.438629,202.326645 124.370819,203.660477 110.301720,204.977707 
	C104.575279,205.513855 102.794487,207.558746 102.975822,213.376938 
	C103.027512,215.035645 103.271454,216.688766 103.437294,218.343430 
	C104.961670,233.553680 106.488274,248.763718 107.598999,264.539093 
	C105.453079,265.746246 103.110725,266.829254 104.121086,270.836578 
	C102.045815,278.097595 104.682030,285.264954 110.615562,288.894836 
	C111.092255,293.844818 111.256905,298.850952 112.135086,303.728638 
	C112.980644,308.425140 111.437782,314.581116 118.502312,316.289764 
	C118.980331,316.405365 119.032990,317.805511 119.529655,318.403870 
	C121.270294,320.501007 122.745659,323.166901 124.989532,324.438629 
	C135.916336,330.631683 147.010941,336.536987 158.170258,342.304047 
	C160.231964,343.369507 162.983963,344.045044 165.213120,343.673950 
	C174.007004,342.209778 182.699799,340.151428 191.467285,338.512543 
	C202.006424,336.542450 212.583450,334.775024 223.136520,333.867340 
	C222.549286,363.566833 221.962051,393.266296 221.095093,423.882629 
	C221.095093,428.795959 221.095093,433.709290 221.095093,438.359192 
	C226.514679,439.692627 231.301941,440.870483 235.657104,442.680023 
	C228.480042,443.719086 228.480042,443.719086 227.381088,451.266876 
	C224.241196,454.119110 221.101318,456.971375 217.320724,460.074768 
	C216.041580,461.131042 214.256027,461.940094 213.593491,463.297333 
	C212.383774,465.775604 210.556274,469.106445 211.376129,471.097900 
	C212.202118,473.104248 215.807388,474.280273 218.415619,475.180939 
	C226.692444,478.039093 232.491699,472.140594 238.038193,468.104980 
	C245.162720,462.921265 245.709473,457.588287 242.941910,449.654297 
	C242.031174,447.043396 242.182816,444.061890 242.694244,441.087372 
	C244.972519,439.997711 248.615387,439.415344 249.247910,437.713867 
	C250.607742,434.055969 250.416962,429.821594 250.915833,425.013977 
	C254.934875,403.294769 258.953918,381.575592 263.611572,360.316040 
	C264.335510,363.393433 265.059479,366.470856 265.653259,370.169495 
	C265.792816,370.785400 265.932343,371.401276 265.973022,372.854675 
	C267.069824,378.890594 268.166656,384.926483 269.201447,391.527649 
	C269.418274,392.031342 269.635101,392.535004 269.836517,393.882202 
	C270.486145,397.090210 271.135773,400.298218 271.694122,404.018280 
	C271.791840,404.348846 271.889557,404.679413 271.920197,405.814301 
	C272.554382,408.339386 273.188538,410.864471 273.769257,413.725098 
	C273.769257,413.725098 273.924652,414.027252 273.879944,414.879608 
	C274.362549,418.596283 274.845123,422.312927 275.092743,426.814362 
	C276.802063,432.708496 274.512299,441.015961 284.589325,442.869202 
	C284.018890,445.176422 283.348999,447.464600 282.903412,449.795685 
	C282.357727,452.650208 281.194733,455.692383 281.702728,458.388855 
	C283.711426,469.050476 298.492004,477.138153 310.143433,474.349182 
	C314.640411,473.272736 316.440063,469.650269 313.919922,465.825806 
	C312.415466,463.542664 310.021790,461.845459 307.686523,459.313385 
	C304.508392,456.870361 301.330261,454.427338 297.715729,451.307465 
	C297.798187,447.061066 295.352020,444.049713 293.620087,441.073944 
	C295.074219,440.738800 296.515381,440.325745 297.984619,440.081482 
	C306.122772,438.728668 306.164948,438.740753 305.760773,430.454865 
	C305.639923,427.977631 305.227936,425.514618 305.013092,422.103149 
	C304.884094,408.432800 304.755127,394.762451 304.742340,380.251678 
	C304.509979,377.164856 304.277649,374.078033 304.359589,370.376434 
	C304.104706,363.565460 303.849792,356.754517 303.711304,349.320038 
	C303.656494,348.903595 303.601685,348.487183 303.767151,347.180054 
	C303.513031,343.788361 303.258911,340.396637 303.083588,336.331970 
	C303.040619,335.883728 302.997650,335.435455 303.108398,334.130768 
	C303.000000,332.120728 302.891602,330.110657 303.155487,327.590363 
z"/>
<path fill="#F79A42" opacity="1.000000" stroke="none" 
	d="
M262.972961,359.856384 
	C258.953918,381.575592 254.934875,403.294769 250.436584,425.469055 
	C240.266006,426.520905 230.660233,426.290833 221.374817,422.965790 
	C221.962051,393.266296 222.549286,363.566833 223.468781,333.200073 
	C227.208374,332.002747 230.615738,331.472687 233.921692,331.277496 
	C231.990417,334.145996 230.397766,336.901733 228.279160,339.165131 
	C224.376709,343.334259 224.287125,343.864929 230.260803,349.236694 
	C233.709503,345.183807 237.226669,341.050476 241.035156,336.798645 
	C241.526596,336.113586 241.726700,335.546997 241.941040,334.971985 
	C241.955276,334.963531 241.961639,334.931030 242.190674,334.835449 
	C242.701752,334.535675 242.879913,334.263428 242.938004,333.955383 
	C242.921829,333.987579 242.876694,333.931366 243.114838,333.883789 
	C243.666000,333.705109 243.891724,333.484589 244.400696,333.109741 
	C245.516724,333.117004 246.262161,333.189331 247.159409,333.441589 
	C247.862625,333.535034 248.414017,333.448578 249.294891,333.316467 
	C250.060074,333.338165 250.495758,333.405457 251.009903,333.733337 
	C251.747925,333.929108 252.407486,333.864349 253.435364,333.766205 
	C254.537582,333.805542 255.271484,333.878265 256.088745,334.351074 
	C262.734039,334.801666 269.329102,335.263184 275.844666,334.738068 
	C279.371826,334.453796 282.609467,332.931976 284.846283,337.065247 
	C285.136414,337.601318 286.276855,337.677185 287.012238,337.980560 
	C287.001007,337.994934 287.032898,337.979095 287.056610,338.306946 
	C287.522644,339.051453 287.964966,339.468109 288.647522,340.034790 
	C289.618927,341.040863 290.350159,341.896851 291.155548,343.021912 
	C291.520020,343.506989 291.810272,343.723053 292.060547,343.959656 
	C292.020538,343.980164 292.058624,343.898712 292.184509,344.160583 
	C292.655304,344.580292 293.000214,344.738098 293.603058,344.961578 
	C294.230835,345.390747 294.600647,345.754211 295.008545,346.407471 
	C295.430450,347.082947 295.814301,347.468658 296.139954,347.847290 
	C296.081818,347.840271 296.181580,347.778839 296.215942,348.057220 
	C296.861298,348.462677 297.472260,348.589752 298.335236,348.630859 
	C299.068665,348.018951 299.550110,347.493011 300.341614,346.999847 
	C301.616699,347.378662 302.581757,347.724701 303.546875,348.070740 
	C303.601685,348.487183 303.656494,348.903595 303.307037,349.781219 
	C303.283600,357.158661 303.664459,364.074951 304.045288,370.991211 
	C304.277649,374.078033 304.509979,377.164856 304.474243,381.011963 
	C304.140015,395.492676 304.073914,409.213104 303.821075,423.015564 
	C303.634338,423.097565 303.227570,423.127777 302.863342,423.088593 
	C301.679901,423.404633 300.860718,423.759857 300.019348,424.074707 
	C299.997162,424.034363 300.077698,424.079071 299.678589,424.054138 
	C297.839386,424.404785 296.399323,424.780426 294.815063,425.206909 
	C294.670898,425.257721 294.386780,425.144836 293.885925,425.099792 
	C289.782288,425.038879 286.163391,424.800873 282.580811,425.061829 
	C277.833984,425.407623 276.181213,423.097687 275.888062,418.736176 
	C275.780060,417.129791 274.610168,415.594818 273.924652,414.027252 
	C273.924652,414.027252 273.769257,413.725098 273.851440,413.115265 
	C273.284821,410.006958 272.636017,407.508453 271.987244,405.009979 
	C271.889557,404.679413 271.791840,404.348846 271.800293,403.290649 
	C271.221588,399.388245 270.536743,396.213470 269.851898,393.038696 
	C269.635101,392.535004 269.418274,392.031342 269.457611,390.938843 
	C268.499817,384.239075 267.285858,378.128143 266.071899,372.017181 
	C265.932343,371.401276 265.792816,370.785400 265.776306,369.390076 
	C265.550140,365.746246 265.228485,362.877502 264.773987,360.029907 
	C264.750092,359.880066 263.599182,359.910095 262.972961,359.856384 
z"/>
<path fill="#04AFC3" opacity="1.000000" stroke="none" 
	d="
M325.718140,238.034622 
	C325.382233,247.384857 323.979736,248.924240 314.415558,249.919220 
	C310.472870,250.329407 306.499634,250.446426 301.511261,250.761841 
	C302.350922,257.050690 303.061066,263.408478 304.069702,269.718597 
	C306.555359,285.269379 309.025879,300.825775 311.828186,316.320984 
	C312.808746,321.742950 310.350586,324.327820 305.112946,326.065491 
	C300.519196,327.668365 296.677795,329.230743 292.532837,330.844666 
	C291.815735,330.901581 291.402191,330.906952 290.896606,330.750549 
	C290.554718,330.744171 290.304840,330.899536 290.044037,331.035187 
	C290.033081,331.015472 290.022186,331.059021 289.585938,330.998596 
	C286.396606,331.493286 283.643555,332.048431 280.594360,332.682617 
	C279.891510,332.752686 279.484802,332.743683 278.730286,332.503296 
	C269.737030,332.192291 261.089355,332.200226 252.447632,331.976288 
	C250.048752,331.914093 247.667694,331.164062 244.337769,330.558594 
	C246.289291,329.158417 247.070099,328.598236 248.287582,328.019501 
	C255.237106,326.649231 261.743469,325.265411 268.264221,323.952850 
	C279.605896,321.669861 290.957367,319.435638 302.302704,317.170624 
	C305.876556,316.457092 307.532837,314.587585 305.967041,310.636383 
	C305.763062,310.109161 305.513458,309.947174 304.981262,309.788940 
	C304.788147,309.654846 304.355225,309.471466 304.167938,309.201294 
	C302.667511,308.250183 301.410461,307.416168 300.032715,306.911621 
	C283.685883,300.925354 267.321045,294.988190 250.943634,288.608459 
	C248.389206,265.156189 245.852097,242.133606 243.677460,219.061157 
	C245.018509,219.005005 245.997040,218.998718 246.996964,219.442932 
	C247.765762,225.361130 248.513184,230.828857 249.303009,236.606796 
	C254.508179,231.627426 258.715607,227.602524 263.171021,223.496201 
	C263.592773,223.405182 263.766541,223.395599 264.011841,223.701355 
	C267.855347,228.224213 271.627350,232.431732 275.396362,236.642090 
	C278.799744,232.406738 279.875610,228.417740 280.149750,219.009430 
	C287.897247,219.745789 295.632568,220.686340 303.396301,221.150986 
	C309.138031,221.494614 314.916779,221.218506 320.828857,221.218506 
	C321.614532,223.048340 322.396210,224.868896 323.484314,227.350357 
	C324.433197,231.352386 325.075653,234.693497 325.718140,238.034622 
z"/>
<path fill="#1E2123" opacity="1.000000" stroke="none" 
	d="
M306.010925,310.863831 
	C307.532837,314.587585 305.876556,316.457092 302.302704,317.170624 
	C290.957367,319.435638 279.605896,321.669861 268.264221,323.952850 
	C261.743469,325.265411 255.237106,326.649231 247.897064,327.947876 
	C243.327148,328.644653 239.584427,329.394501 235.573761,330.154480 
	C234.878235,330.423920 234.450668,330.683289 234.023087,330.942627 
	C230.615738,331.472687 227.208374,332.002747 223.472549,332.726349 
	C212.583450,334.775024 202.006424,336.542450 191.467285,338.512543 
	C182.699799,340.151428 174.007004,342.209778 165.213120,343.673950 
	C162.983963,344.045044 160.231964,343.369507 158.170258,342.304047 
	C147.010941,336.536987 135.916336,330.631683 124.989532,324.438629 
	C122.745659,323.166901 121.270294,320.501007 119.529655,318.403870 
	C119.032990,317.805511 118.980331,316.405365 118.502312,316.289764 
	C111.437782,314.581116 112.980644,308.425140 112.135086,303.728638 
	C111.256905,298.850952 111.092255,293.844818 110.916016,288.392212 
	C115.614243,286.860809 118.711174,284.406250 120.236298,280.217651 
	C121.473679,288.528625 122.427986,296.540527 123.401245,304.711548 
	C124.850235,304.806122 126.018005,305.096344 127.111618,304.921814 
	C146.231003,301.870697 165.349213,298.810516 184.451233,295.652771 
	C201.433670,292.845459 218.387283,289.863525 235.371979,287.070374 
	C241.100784,286.128265 241.634979,285.266266 240.874527,279.123138 
	C239.126114,264.999237 237.605865,250.847092 235.993607,236.706345 
	C234.943344,227.494919 233.861633,218.286911 232.859421,209.070267 
	C232.422684,205.053757 230.600937,203.300461 226.332245,203.951675 
	C220.445572,204.849670 214.503113,205.408493 208.572052,205.983673 
	C197.030670,207.102936 185.474426,208.070541 173.935806,209.216385 
	C161.912170,210.410431 149.902206,211.741974 137.885971,213.010742 
	C130.031204,213.840088 122.175941,214.664719 113.884132,215.537430 
	C114.456673,221.663193 114.936035,227.414612 115.543274,233.152466 
	C116.634102,243.459885 117.801712,253.759201 118.638046,264.035339 
	C114.897308,263.997101 111.455772,263.985474 108.014229,263.973816 
	C106.488274,248.763718 104.961670,233.553680 103.437294,218.343430 
	C103.271454,216.688766 103.027512,215.035645 102.975822,213.376938 
	C102.794487,207.558746 104.575279,205.513855 110.301720,204.977707 
	C124.370819,203.660477 138.438629,202.326645 152.514801,201.088654 
	C171.896790,199.384048 191.285660,197.757385 210.672821,196.111954 
	C212.165421,195.985291 213.667786,195.974014 216.007629,195.816742 
	C221.473419,195.326675 226.099503,194.954132 230.720413,194.525726 
	C238.586456,193.796463 240.035538,194.898361 241.204193,202.591431 
	C241.527817,204.721710 241.863113,206.850235 242.125183,209.403595 
	C242.476517,212.922104 242.895752,216.016556 243.314972,219.111008 
	C245.852097,242.133606 248.389206,265.156189 250.893524,288.911560 
	C250.853409,290.053955 250.846100,290.463654 250.435776,290.908020 
	C207.122208,298.304169 164.211655,305.665619 121.301102,313.027039 
	C121.943771,314.729370 122.436447,315.172943 123.005806,315.469055 
	C136.127991,322.293976 149.243546,329.132172 162.416977,335.856934 
	C163.430923,336.374542 164.908859,336.323792 166.095123,336.111847 
	C182.229675,333.229065 198.352310,330.279358 214.474869,327.329651 
	C233.365814,323.873474 252.278961,320.531281 271.133118,316.884399 
	C281.494263,314.880280 291.753876,312.351227 302.456848,310.025574 
	C303.354675,309.818665 303.854950,309.645050 304.355225,309.471436 
	C304.355225,309.471466 304.788147,309.654846 305.025940,310.015289 
	C305.429016,310.666656 305.678070,310.829346 306.010925,310.863831 
z"/>
<path fill="#FAC6A5" opacity="1.000000" stroke="none" 
	d="
M242.193054,208.979553 
	C241.863113,206.850235 241.527817,204.721710 241.204193,202.591431 
	C240.035538,194.898361 238.586456,193.796463 230.720413,194.525726 
	C226.099503,194.954132 221.473419,195.326675 216.450974,195.708740 
	C213.073975,192.180832 209.567474,188.985229 207.231079,185.088104 
	C202.831573,177.749710 199.106781,170.006790 194.864304,161.983505 
	C193.991669,162.111542 192.113754,162.387115 190.149231,162.322449 
	C191.410889,160.519348 192.759155,159.056458 194.449966,157.675079 
	C195.589172,158.580658 196.454285,159.349380 197.172379,160.237061 
	C209.587357,175.584305 231.067581,177.418152 245.888260,164.422028 
	C251.478760,159.519791 254.946335,153.360275 256.355347,146.169525 
	C257.044067,142.654602 259.194214,142.463165 261.767059,142.843475 
	C264.256958,143.211517 267.763214,141.123550 268.834259,145.374573 
	C269.641174,148.577301 270.318207,151.812744 270.724304,154.874756 
	C264.152405,151.126846 259.209961,151.742737 257.147156,155.461090 
	C261.078522,155.824097 265.404327,156.268341 269.740814,156.545868 
	C270.121704,156.570251 270.572510,155.502563 271.296082,155.092651 
	C272.543579,156.389084 273.568451,157.477295 274.415833,158.689545 
	C286.123291,175.437439 309.416382,177.945679 324.504944,164.094421 
	C325.815735,162.891098 327.330688,161.910187 328.847748,161.134293 
	C328.993500,161.652496 329.042297,161.862366 329.091064,162.072220 
	C325.196838,179.853470 315.140411,193.362640 299.186798,201.637085 
	C290.967377,205.900177 281.509369,207.775269 271.809937,210.857529 
	C265.414978,210.978409 259.821106,210.971146 253.805237,210.945740 
	C249.653152,210.278229 245.923096,209.628891 242.193054,208.979553 
M279.428345,168.735413 
	C278.152130,168.601013 276.636566,167.950150 275.637299,168.413300 
	C267.111755,172.364822 258.602905,171.254272 249.977753,168.889206 
	C248.646576,168.524185 247.032593,169.190475 244.892181,169.095276 
	C243.951569,169.829086 242.551590,170.368347 242.145020,171.328354 
	C239.532135,177.497696 245.259460,188.376907 251.973175,190.876770 
	C257.714081,196.089523 269.974731,195.675461 276.647736,189.832108 
	C281.955811,186.053772 284.378967,180.729401 283.863983,174.422440 
	C283.710510,172.542740 281.428802,170.836807 279.428345,168.735413 
z"/>
<path fill="#F8B41B" opacity="1.000000" stroke="none" 
	d="
M282.988586,39.924095 
	C287.110382,41.548138 291.232147,43.172180 295.908630,45.199051 
	C306.959137,50.509922 316.355164,57.042652 323.785065,65.921204 
	C330.704651,74.189934 337.001587,82.986832 339.152588,93.944351 
	C339.016663,93.981506 338.833252,94.195503 338.523621,94.152969 
	C337.444702,94.365089 336.675446,94.619759 335.513885,94.853668 
	C334.079773,94.932747 333.037964,95.032578 331.880981,94.803223 
	C328.689606,90.350075 325.967987,85.894966 322.477936,82.157494 
	C303.899567,62.262062 280.788971,53.410728 253.818222,56.137695 
	C227.906357,58.757599 207.422821,71.147873 192.642166,93.121674 
	C190.168457,92.694550 188.091629,92.279251 185.960098,91.481941 
	C188.269180,81.628059 193.791977,73.924721 200.119797,66.854141 
	C218.211044,46.639305 240.886795,37.167988 268.045258,38.727943 
	C273.032806,39.014420 278.007812,39.519772 282.988586,39.924095 
z"/>
<path fill="#7D3B32" opacity="1.000000" stroke="none" 
	d="
M282.933411,39.571236 
	C278.007812,39.519772 273.032806,39.014420 268.045258,38.727943 
	C240.886795,37.167988 218.211044,46.639305 200.119797,66.854141 
	C193.791977,73.924721 188.269180,81.628059 185.570679,91.360733 
	C180.493088,91.415108 175.750229,91.208679 170.762299,90.979370 
	C170.517227,90.956497 170.026718,90.915070 170.026718,90.915070 
	C169.986832,79.030396 177.133499,69.996765 191.126740,65.136650 
	C195.047043,63.775063 197.375336,61.740322 199.250961,58.060146 
	C207.063019,42.732040 220.505066,34.190083 236.300903,29.120701 
	C251.898895,24.114809 267.904633,23.339581 284.234833,26.082937 
	C278.748169,31.349396 278.630035,32.650318 282.933411,39.571236 
z"/>
<path fill="#5C5E5F" opacity="1.000000" stroke="none" 
	d="
M171.007355,91.002243 
	C175.750229,91.208679 180.493088,91.415108 185.625397,91.742744 
	C188.091629,92.279251 190.168457,92.694550 192.673370,93.475090 
	C195.220810,98.968323 197.340149,104.096313 199.381195,109.634819 
	C199.231689,111.996231 199.160477,113.947121 198.925293,116.205368 
	C192.795395,124.115944 188.808838,132.525772 190.126984,142.396912 
	C190.814804,147.547791 192.740738,152.533356 194.107437,157.593582 
	C192.759155,159.056458 191.410889,160.519348 189.787094,162.167664 
	C184.332397,162.569656 179.153229,162.786209 173.681290,162.624390 
	C174.263809,160.148865 175.650787,158.116486 175.925797,155.943375 
	C177.117615,146.525894 178.158676,137.080063 178.850662,127.614990 
	C179.029251,125.172226 177.740417,122.622177 177.088287,119.727638 
	C177.312515,109.404457 175.446686,99.928871 171.007355,91.002243 
z"/>
<path fill="#F8C9A9" opacity="1.000000" stroke="none" 
	d="
M326.092529,237.971466 
	C325.075653,234.693497 324.433197,231.352386 323.729126,227.615753 
	C332.410004,222.108322 341.118256,216.764801 346.982635,208.323364 
	C350.810944,202.812759 353.978485,196.685242 356.393311,190.429260 
	C357.343536,187.967529 355.569366,184.370270 354.790100,181.353592 
	C354.248016,179.254944 353.286987,177.264511 352.513062,175.225754 
	C354.556274,175.225754 356.599487,175.225754 359.422028,175.225754 
	C360.427002,171.059814 361.620789,166.111053 362.814606,161.162308 
	C363.513397,161.138535 364.212189,161.114777 364.910980,161.091003 
	C365.424225,163.688614 365.937469,166.286209 366.653259,169.908844 
	C367.590424,167.342178 368.039154,165.322067 369.039948,163.628052 
	C369.809601,162.325211 371.273956,161.432739 372.429382,160.357788 
	C372.691101,161.795761 373.037415,163.225327 373.181091,164.674973 
	C373.260590,165.477371 373.000946,166.313400 372.743561,167.599152 
	C372.747925,168.065231 372.902893,168.066406 373.057861,168.067596 
	C374.519958,166.569031 375.982086,165.070465 377.444183,163.571899 
	C377.891479,163.829620 378.338806,164.087326 378.786102,164.345047 
	C378.516937,165.973404 378.247742,167.601761 377.840149,169.663635 
	C377.801575,170.065292 377.901398,170.033417 378.001221,170.001541 
	C382.272827,169.649994 382.725830,171.760544 380.646179,174.687576 
	C376.826202,180.063995 376.462372,187.877548 369.025391,190.830933 
	C367.871399,191.289215 367.562683,193.998810 366.959137,195.701370 
	C359.810944,215.866257 345.501923,229.152161 326.092529,237.971466 
z"/>
<path fill="#5C5E5F" opacity="1.000000" stroke="none" 
	d="
M331.996124,95.132408 
	C333.037964,95.032578 334.079773,94.932747 335.836945,94.898712 
	C337.312592,94.708183 338.072937,94.451843 338.833252,94.195511 
	C338.833252,94.195503 339.016663,93.981506 339.585388,93.987549 
	C344.454926,94.022308 348.755707,94.051018 352.914917,94.405716 
	C351.580414,97.858940 350.387573,100.986168 348.929840,103.974045 
	C348.450836,105.575378 348.236664,107.316071 348.012085,109.027023 
	C348.001648,108.997292 348.064423,108.991684 347.770813,109.212250 
	C347.329285,110.637123 347.181335,111.841431 347.016113,113.023979 
	C346.998871,113.002228 347.054291,112.998978 346.756714,113.268707 
	C345.976471,125.484947 345.470337,137.430649 345.060211,149.379654 
	C345.030487,150.244705 345.699463,151.133743 346.016388,152.009842 
	C345.989197,152.008057 345.999878,151.954605 346.086578,152.154449 
	C346.323792,152.620087 346.546051,152.794235 346.893860,153.285461 
	C347.981140,157.404221 349.014587,161.114227 350.048035,164.824249 
	C342.919922,166.924286 336.168091,165.961472 329.417542,162.201141 
	C329.042297,161.862366 328.993500,161.652496 328.912598,160.782791 
	C329.064667,159.493790 329.103699,158.766022 329.454376,158.250092 
	C335.974762,148.657181 337.164917,138.282196 332.968567,127.655327 
	C331.078979,122.870178 327.642334,118.695938 324.966064,113.823914 
	C327.348389,107.313011 329.672241,101.222710 331.996124,95.132408 
z"/>
<path fill="#7D3B32" opacity="1.000000" stroke="none" 
	d="
M353.056519,94.079727 
	C348.755707,94.051018 344.454926,94.022308 339.721313,93.950394 
	C337.001587,82.986832 330.704651,74.189934 323.785065,65.921204 
	C316.355164,57.042652 306.959137,50.509922 296.254395,45.335762 
	C304.221558,46.087437 312.533691,46.497166 320.537018,48.287350 
	C329.219360,50.229416 331.082703,53.783455 330.185608,63.083031 
	C343.901245,68.517807 357.342194,74.579773 355.614380,93.564423 
	C354.450958,94.033264 353.753754,94.056496 353.056519,94.079727 
z"/>
<path fill="#E74A34" opacity="1.000000" stroke="none" 
	d="
M228.008057,451.001129 
	C228.480042,443.719086 228.480042,443.719086 236.206421,442.209015 
	C238.453384,441.575287 240.151031,441.412567 241.848679,441.249847 
	C242.182816,444.061890 242.031174,447.043396 242.941910,449.654297 
	C245.709473,457.588287 245.162720,462.921265 238.038193,468.104980 
	C232.491699,472.140594 226.692444,478.039093 218.415619,475.180939 
	C215.807388,474.280273 212.202118,473.104248 211.376129,471.097900 
	C210.556274,469.106445 212.383774,465.775604 213.593491,463.297333 
	C214.256027,461.940094 216.041580,461.131042 218.032593,460.049377 
	C222.395462,460.761322 226.046478,461.498627 229.697495,462.235962 
	C229.842926,461.774933 229.988373,461.313904 230.133820,460.852875 
	C229.265259,459.698639 228.396713,458.544403 226.959106,456.633972 
	C230.105865,456.633972 232.391037,456.633972 234.676208,456.633972 
	C234.775574,456.258667 234.874939,455.883392 234.974304,455.508087 
	C232.652222,454.005768 230.330139,452.503448 228.008057,451.001129 
z"/>
<path fill="#E74932" opacity="1.000000" stroke="none" 
	d="
M292.739777,441.119446 
	C295.352020,444.049713 297.798187,447.061066 297.563660,451.757263 
	C294.887543,453.379425 290.789459,452.629303 290.957520,457.548492 
	C292.655212,457.835724 294.197052,458.096588 295.929321,458.389679 
	C294.550507,462.258484 296.649384,462.516876 299.387177,461.930084 
	C302.280609,461.309998 305.148712,460.571564 308.027863,459.884857 
	C310.021790,461.845459 312.415466,463.542664 313.919922,465.825806 
	C316.440063,469.650269 314.640411,473.272736 310.143433,474.349182 
	C298.492004,477.138153 283.711426,469.050476 281.702728,458.388855 
	C281.194733,455.692383 282.357727,452.650208 282.903412,449.795685 
	C283.348999,447.464600 284.018890,445.176422 284.826050,442.412170 
	C287.621765,441.676575 290.180756,441.398010 292.739777,441.119446 
z"/>
<path fill="#7E3B34" opacity="1.000000" stroke="none" 
	d="
M293.179932,441.096680 
	C290.180756,441.398010 287.621765,441.676575 284.673279,441.999969 
	C274.512299,441.015961 276.802063,432.708496 275.652100,426.413208 
	C282.269897,425.722992 288.328339,425.433899 294.386780,425.144836 
	C294.386780,425.144836 294.670898,425.257721 295.208038,425.215179 
	C297.189362,424.808136 298.633514,424.443604 300.077698,424.079071 
	C300.077698,424.079071 299.997162,424.034363 300.366425,424.077698 
	C301.566315,423.789948 302.396942,423.458862 303.227570,423.127808 
	C303.227570,423.127777 303.634338,423.097565 304.055603,423.050385 
	C304.476868,423.003204 304.949310,423.045074 304.949341,423.045074 
	C305.227936,425.514618 305.639923,427.977631 305.760773,430.454865 
	C306.164948,438.740753 306.122772,438.728668 297.984619,440.081482 
	C296.515381,440.325745 295.074219,440.738800 293.179932,441.096680 
z"/>
<path fill="#7D3B32" opacity="1.000000" stroke="none" 
	d="
M242.271454,441.168610 
	C240.151031,441.412567 238.453384,441.575287 236.422470,441.893158 
	C231.301941,440.870483 226.514679,439.692627 221.095093,438.359192 
	C221.095093,433.709290 221.095093,428.795959 221.234955,423.424194 
	C230.660233,426.290833 240.266006,426.520905 250.409149,425.873657 
	C250.416962,429.821594 250.607742,434.055969 249.247910,437.713867 
	C248.615387,439.415344 244.972519,439.997711 242.271454,441.168610 
z"/>
<path fill="#2C303C" opacity="1.000000" stroke="none" 
	d="
M352.914917,94.405716 
	C353.753754,94.056496 354.450958,94.033264 355.497742,94.003899 
	C357.246765,102.711189 358.646271,111.424614 359.664551,120.596344 
	C358.864471,121.065033 358.445648,121.075417 357.946014,120.686279 
	C357.539490,118.201622 357.387085,116.070427 356.847992,114.042000 
	C356.003937,110.866005 354.504761,109.720589 351.872070,113.257881 
	C347.409363,123.935944 347.244720,134.795212 348.902954,145.759125 
	C349.125092,147.227783 350.385010,148.539505 351.111938,149.933090 
	C351.059509,149.942291 351.127350,149.860275 351.137115,150.231445 
	C354.783905,152.627960 355.443695,152.182968 355.702820,147.366882 
	C355.695190,147.209045 355.858337,146.938370 356.158661,146.846619 
	C357.027344,146.485825 357.595734,146.216797 358.164093,145.947769 
	C357.128204,150.955063 356.354370,156.039932 354.908020,160.925720 
	C354.430145,162.539993 352.217438,163.640686 350.422974,164.900223 
	C349.014587,161.114227 347.981140,157.404221 346.825989,153.079224 
	C346.517242,152.228363 346.282440,152.058487 345.999878,151.954605 
	C345.999878,151.954605 345.989197,152.008057 345.990051,151.539871 
	C346.345398,138.380783 346.699829,125.689880 347.054291,112.998978 
	C347.054291,112.998978 346.998871,113.002228 347.316895,112.815010 
	C347.778076,111.415756 347.921234,110.203720 348.064423,108.991684 
	C348.064423,108.991684 348.001648,108.997292 348.272766,108.763947 
	C348.760803,107.058205 348.977753,105.585808 349.194702,104.113403 
	C350.387573,100.986168 351.580414,97.858940 352.914917,94.405716 
z"/>
<path fill="#2B2E38" opacity="1.000000" stroke="none" 
	d="
M170.762299,90.979370 
	C175.446686,99.928871 177.312515,109.404457 177.048126,120.182869 
	C177.009277,126.979004 177.320282,132.953568 176.852936,138.866608 
	C176.207809,147.029007 175.941666,155.387970 170.988892,162.524918 
	C169.340164,159.675613 167.100739,157.002335 166.186371,153.934174 
	C164.932480,149.726761 164.683777,145.219772 164.339661,140.542206 
	C165.242233,140.438858 165.809433,140.634491 166.432617,140.985458 
	C166.488617,141.140793 166.383011,141.453674 166.277863,141.840454 
	C166.541443,143.096390 166.910156,143.965546 167.141571,144.916901 
	C167.004272,144.999084 167.273911,144.826889 167.190430,145.190460 
	C167.776367,146.328751 168.445816,147.103485 169.064423,147.939102 
	C169.013580,147.999985 169.098923,147.866669 169.203720,148.122009 
	C169.815338,148.172287 170.322174,147.967224 170.851135,147.810013 
	C170.873260,147.857849 170.769669,147.838318 171.068115,147.731583 
	C171.537430,147.047256 171.708282,146.469666 171.932465,145.941833 
	C171.985794,145.991577 171.860962,145.916092 172.217590,145.765564 
	C172.992081,143.038239 173.409943,140.461426 173.836304,137.950684 
	C173.844803,138.016754 173.789505,137.895493 174.129395,137.651291 
	C174.583633,131.316956 175.048721,125.204567 174.664291,119.146088 
	C174.472412,116.122139 172.727188,113.196762 171.802704,110.219070 
	C171.920837,110.211349 171.685135,110.190170 171.759140,109.873154 
	C171.460632,109.107826 171.088120,108.659515 170.830338,108.226669 
	C170.945053,108.242134 170.713089,108.243080 170.781754,108.005951 
	C170.803574,107.470047 170.756729,107.171265 170.709885,106.872490 
	C170.470673,107.168175 170.231476,107.463867 169.687286,107.786156 
	C168.989014,107.921837 168.595749,108.030922 167.907532,108.253220 
	C167.446182,108.947716 167.279755,109.528999 167.074341,110.072784 
	C167.035355,110.035301 167.141281,110.057266 166.850952,110.250290 
	C166.426849,111.339935 166.293076,112.236549 166.164398,113.147385 
	C166.169479,113.161598 166.195755,113.180305 165.890045,113.329430 
	C165.005020,114.665825 164.425720,115.853096 163.846420,117.040359 
	C163.817276,116.537079 163.788147,116.033798 163.893738,115.039894 
	C164.028442,114.549271 164.012726,114.286705 164.012726,114.286705 
	C164.142303,106.249321 164.473129,98.260361 169.772522,91.160423 
	C170.026718,90.915070 170.517227,90.956497 170.762299,90.979370 
z"/>
<path fill="#076B7C" opacity="1.000000" stroke="none" 
	d="
M279.970215,218.714493 
	C279.875610,228.417740 278.799744,232.406738 275.396362,236.642090 
	C271.627350,232.431732 267.855347,228.224213 264.205963,223.393448 
	C266.890228,219.150635 269.451843,215.531097 272.013489,211.911545 
	C274.605896,214.080887 277.198303,216.250229 279.970215,218.714493 
z"/>
<path fill="#F4C4A5" opacity="1.000000" stroke="none" 
	d="
M119.953232,279.918610 
	C118.711174,284.406250 115.614243,286.860809 110.826118,287.947266 
	C104.682030,285.264954 102.045815,278.097595 104.428650,270.421936 
	C105.145927,269.992676 105.555634,269.978027 106.241089,270.251343 
	C109.612900,270.539276 112.708954,270.539276 116.168045,270.539276 
	C115.239235,272.139191 114.303009,273.751892 113.030968,275.943024 
	C115.595062,275.171600 117.352997,274.642700 119.247742,274.428040 
	C119.574112,276.467743 119.763672,278.193176 119.953232,279.918610 
z"/>
<path fill="#F4C4A5" opacity="1.000000" stroke="none" 
	d="
M271.962463,211.674988 
	C269.451843,215.531097 266.890228,219.150635 264.134460,223.078094 
	C263.766541,223.395599 263.592773,223.405182 262.906067,223.251923 
	C259.608368,219.409714 256.823639,215.730331 254.088608,211.779633 
	C254.167953,211.326859 254.197601,211.145370 254.227264,210.963898 
	C259.821106,210.971146 265.414978,210.978409 271.425262,210.972549 
	C271.841705,210.959427 271.911407,211.438416 271.962463,211.674988 
z"/>
<path fill="#F1C7C1" opacity="1.000000" stroke="none" 
	d="
M307.857178,459.599121 
	C305.148712,460.571564 302.280609,461.309998 299.387177,461.930084 
	C296.649384,462.516876 294.550507,462.258484 295.929321,458.389679 
	C294.197052,458.096588 292.655212,457.835724 290.957520,457.548492 
	C290.789459,452.629303 294.887543,453.379425 297.781860,452.095673 
	C301.330261,454.427338 304.508392,456.870361 307.857178,459.599121 
z"/>
<path fill="#F1C7C1" opacity="1.000000" stroke="none" 
	d="
M227.694580,451.134003 
	C230.330139,452.503448 232.652222,454.005768 234.974304,455.508087 
	C234.874939,455.883392 234.775574,456.258667 234.676208,456.633972 
	C232.391037,456.633972 230.105865,456.633972 226.959106,456.633972 
	C228.396713,458.544403 229.265259,459.698639 230.133820,460.852875 
	C229.988373,461.313904 229.842926,461.774933 229.697495,462.235962 
	C226.046478,461.498627 222.395462,460.761322 218.352936,459.923828 
	C221.101318,456.971375 224.241196,454.119110 227.694580,451.134003 
z"/>
<path fill="#767779" opacity="1.000000" stroke="none" 
	d="
M171.200851,162.704651 
	C175.941666,155.387970 176.207809,147.029007 176.852936,138.866608 
	C177.320282,132.953568 177.009277,126.979004 177.085526,120.576645 
	C177.740417,122.622177 179.029251,125.172226 178.850662,127.614990 
	C178.158676,137.080063 177.117615,146.525894 175.925797,155.943375 
	C175.650787,158.116486 174.263809,160.148865 173.222595,162.553131 
	C172.508713,162.868286 171.960754,162.876328 171.200851,162.704651 
z"/>
<path fill="#52411E" opacity="1.000000" stroke="none" 
	d="
M166.376648,140.830124 
	C165.809433,140.634491 165.242233,140.438858 164.398148,140.113297 
	C163.920853,132.580673 163.720444,125.177986 163.683228,117.407822 
	C164.425720,115.853096 165.005020,114.665825 165.895752,113.772095 
	C166.263672,122.987129 166.320160,131.908630 166.376648,140.830124 
z"/>
<path fill="#52411E" opacity="1.000000" stroke="none" 
	d="
M358.026794,121.085808 
	C358.445648,121.075417 358.864471,121.065033 359.597534,121.057007 
	C359.477997,129.144333 359.044281,137.229294 358.387329,145.631012 
	C357.595734,146.216797 357.027344,146.485825 356.164398,146.423279 
	C356.588806,137.756409 357.307800,129.421112 358.026794,121.085808 
z"/>
<path fill="#F79A42" opacity="1.000000" stroke="none" 
	d="
M302.954712,334.987213 
	C302.997650,335.435455 303.040619,335.883728 302.785156,336.876892 
	C301.637909,338.304901 300.789093,339.187958 299.955963,340.059998 
	C299.971619,340.048920 299.957550,340.063873 299.860779,339.829254 
	C299.489594,339.408173 299.215210,339.221741 298.647400,338.892090 
	C297.210449,337.205841 296.066986,335.662781 294.950684,333.742828 
	C295.002594,332.612854 295.027313,331.859802 295.205627,331.004700 
	C295.359222,330.902679 295.727722,330.890137 295.985168,330.874207 
	C296.494232,330.639862 296.745850,330.421509 297.244965,330.069275 
	C297.861084,329.890656 298.229675,329.845917 299.006989,329.871460 
	C300.595337,331.623566 301.775024,333.305389 302.954712,334.987213 
z"/>
<path fill="#E29F5A" opacity="1.000000" stroke="none" 
	d="
M304.981201,422.574097 
	C304.949310,423.045074 304.476868,423.003204 304.242340,422.968384 
	C304.073914,409.213104 304.140015,395.492676 304.416138,381.432159 
	C304.755127,394.762451 304.884094,408.432800 304.981201,422.574097 
z"/>
<path fill="#E29F5A" opacity="1.000000" stroke="none" 
	d="
M293.885925,425.099792 
	C288.328339,425.433899 282.269897,425.722992 275.769592,426.020813 
	C274.845123,422.312927 274.362549,418.596283 273.902283,414.453430 
	C274.610168,415.594818 275.780060,417.129791 275.888062,418.736176 
	C276.181213,423.097687 277.833984,425.407623 282.580811,425.061829 
	C286.163391,424.800873 289.782288,425.038879 293.885925,425.099792 
z"/>
<path fill="#F1C7C1" opacity="1.000000" stroke="none" 
	d="
M105.965347,269.963379 
	C105.555634,269.978027 105.145927,269.992676 104.431030,270.020813 
	C103.110725,266.829254 105.453079,265.746246 107.806610,264.256470 
	C111.455772,263.985474 114.897308,263.997101 118.764191,264.296265 
	C119.163933,265.746460 119.138336,266.909149 118.924408,267.746063 
	C114.087051,263.275787 107.719261,264.543823 105.965347,269.963379 
z"/>
<path fill="#E29F5A" opacity="1.000000" stroke="none" 
	d="
M304.202454,370.683838 
	C303.664459,364.074951 303.283600,357.158661 303.248840,350.092957 
	C303.849792,356.754517 304.104706,363.565460 304.202454,370.683838 
z"/>
<path fill="#E29F5A" opacity="1.000000" stroke="none" 
	d="
M299.940308,340.071045 
	C300.789093,339.187958 301.637909,338.304901 302.745728,337.213379 
	C303.258911,340.396637 303.513031,343.788361 303.656982,347.625427 
	C302.581757,347.724701 301.616699,347.378662 300.417480,346.677551 
	C301.706329,344.176331 302.336945,342.064850 299.940308,340.071045 
z"/>
<path fill="#E29F5A" opacity="1.000000" stroke="none" 
	d="
M266.022461,372.435913 
	C267.285858,378.128143 268.499817,384.239075 269.488617,390.656219 
	C268.166656,384.926483 267.069824,378.890594 266.022461,372.435913 
z"/>
<path fill="#3DA09C" opacity="1.000000" stroke="none" 
	d="
M295.727722,330.890137 
	C295.727722,330.890137 295.359222,330.902679 294.852600,330.969177 
	C293.896942,331.170471 293.447845,331.305237 292.936340,331.283783 
	C292.873871,331.127563 292.836395,330.793121 292.836395,330.793121 
	C296.677795,329.230743 300.519196,327.668365 304.763977,326.148376 
	C304.496735,326.657288 303.826111,327.123840 302.650757,327.870728 
	C300.963440,328.701141 299.780853,329.251129 298.598297,329.801147 
	C298.229675,329.845917 297.861084,329.890656 296.983124,330.061096 
	C296.225098,330.421204 295.976410,330.655670 295.727722,330.890137 
z"/>
<path fill="#E29F5A" opacity="1.000000" stroke="none" 
	d="
M263.292267,360.086212 
	C263.599182,359.910095 264.750092,359.880066 264.773987,360.029907 
	C265.228485,362.877502 265.550140,365.746246 265.841431,369.079437 
	C265.059479,366.470856 264.335510,363.393433 263.292267,360.086212 
z"/>
<path fill="#E29F5A" opacity="1.000000" stroke="none" 
	d="
M269.844208,393.460449 
	C270.536743,396.213470 271.221588,399.388245 271.845917,403.034607 
	C271.135773,400.298218 270.486145,397.090210 269.844208,393.460449 
z"/>
<path fill="#E29F5A" opacity="1.000000" stroke="none" 
	d="
M299.006989,329.871429 
	C299.780853,329.251129 300.963440,328.701141 302.464630,328.125854 
	C302.891602,330.110657 303.000000,332.120728 303.031555,334.558990 
	C301.775024,333.305389 300.595337,331.623566 299.006989,329.871429 
z"/>
<path fill="#E29F5A" opacity="1.000000" stroke="none" 
	d="
M271.953705,405.412140 
	C272.636017,407.508453 273.284821,410.006958 273.878174,412.947510 
	C273.188538,410.864471 272.554382,408.339386 271.953705,405.412140 
z"/>
<path fill="#52411E" opacity="1.000000" stroke="none" 
	d="
M163.917908,114.316246 
	C164.012726,114.286705 164.028442,114.549271 164.006897,114.675797 
	C163.774445,114.732712 163.720352,114.580528 163.917908,114.316246 
z"/>
<path fill="#803D2E" opacity="1.000000" stroke="none" 
	d="
M233.921692,331.277496 
	C234.450668,330.683289 234.878235,330.423920 235.828613,330.408020 
	C238.523178,331.425903 240.694931,332.200317 242.844177,333.214111 
	C242.821701,333.453552 242.876694,333.931366 242.876694,333.931366 
	C242.876694,333.931366 242.921829,333.987579 242.689056,334.020844 
	C242.291412,334.346436 242.126541,334.638733 241.961639,334.931030 
	C241.961639,334.931030 241.955276,334.963531 241.711487,335.149445 
	C241.226425,335.862610 240.985123,336.389862 240.743835,336.917114 
	C237.226669,341.050476 233.709503,345.183807 230.260803,349.236694 
	C224.287125,343.864929 224.376709,343.334259 228.279160,339.165131 
	C230.397766,336.901733 231.990417,334.145996 233.921692,331.277496 
z"/>
<path fill="#803D2E" opacity="1.000000" stroke="none" 
	d="
M299.955963,340.059998 
	C302.336945,342.064850 301.706329,344.176331 300.107422,346.644775 
	C299.550110,347.493011 299.068665,348.018951 298.156616,348.418091 
	C297.211182,348.120483 296.696381,347.949677 296.181580,347.778870 
	C296.181580,347.778839 296.081818,347.840271 296.128723,347.557129 
	C295.773895,346.888580 295.372192,346.503113 294.970459,346.117676 
	C294.600647,345.754211 294.230835,345.390747 293.446411,344.723755 
	C292.707397,344.246368 292.383026,344.072540 292.058624,343.898712 
	C292.058624,343.898712 292.020538,343.980164 291.982025,343.696777 
	C291.656128,343.193176 291.368744,342.973022 291.081360,342.752869 
	C290.350159,341.896851 289.618927,341.040863 288.540161,339.748779 
	C287.806061,338.868195 287.419464,338.423645 287.032898,337.979095 
	C287.032898,337.979095 287.001007,337.994934 286.896179,337.659119 
	C286.001465,335.923676 285.211609,334.524017 284.737671,332.878845 
	C286.709808,332.108582 288.365997,331.583801 290.022186,331.059021 
	C290.022186,331.059021 290.033081,331.015472 290.288330,331.071716 
	C290.543549,331.127991 290.988647,330.912292 290.988647,330.912292 
	C291.402191,330.906952 291.815735,330.901581 292.532837,330.844666 
	C292.836395,330.793121 292.873871,331.127563 293.079834,331.515808 
	C293.831696,332.642639 294.377594,333.381165 294.923492,334.119720 
	C296.066986,335.662781 297.210449,337.205841 298.745789,339.125763 
	C299.410950,339.689728 299.684235,339.876801 299.957550,340.063873 
	C299.957550,340.063873 299.971619,340.048920 299.955963,340.059998 
z"/>
<path fill="#3DA09C" opacity="1.000000" stroke="none" 
	d="
M242.866669,332.974701 
	C240.694931,332.200317 238.523178,331.425903 236.096588,330.397919 
	C239.584427,329.394501 243.327148,328.644653 247.460373,327.966400 
	C247.070099,328.598236 246.289291,329.158417 244.337769,330.558594 
	C247.667694,331.164062 250.048752,331.914093 252.447632,331.976288 
	C261.089355,332.200226 269.737030,332.192291 278.306763,332.647827 
	C270.822510,333.332825 263.413940,333.641876 256.005402,333.950958 
	C255.271484,333.878265 254.537582,333.805542 253.215164,333.578186 
	C252.061600,333.439911 251.496521,333.456329 250.931458,333.472748 
	C250.495758,333.405457 250.060074,333.338165 248.978973,333.197266 
	C247.891586,333.169647 247.449585,333.215637 247.007599,333.261658 
	C246.262161,333.189331 245.516724,333.117004 244.120529,332.996521 
	C243.268723,332.957123 243.067688,332.965912 242.866669,332.974701 
z"/>
<path fill="#E29F5A" opacity="1.000000" stroke="none" 
	d="
M256.088745,334.351074 
	C263.413940,333.641876 270.822510,333.332825 278.654572,332.879211 
	C279.484802,332.743683 279.891510,332.752686 280.938416,332.807526 
	C282.526306,332.943695 283.474030,333.034058 284.421722,333.124390 
	C285.211609,334.524017 286.001465,335.923676 286.907410,337.644745 
	C286.276855,337.677185 285.136414,337.601318 284.846283,337.065247 
	C282.609467,332.931976 279.371826,334.453796 275.844666,334.738068 
	C269.329102,335.263184 262.734039,334.801666 256.088745,334.351074 
z"/>
<path fill="#E29F5A" opacity="1.000000" stroke="none" 
	d="
M299.678589,424.054138 
	C298.633514,424.443604 297.189362,424.808136 295.352203,425.164368 
	C296.399323,424.780426 297.839386,424.404785 299.678589,424.054138 
z"/>
<path fill="#E29F5A" opacity="1.000000" stroke="none" 
	d="
M251.009903,333.733337 
	C251.496521,333.456329 252.061600,333.439911 252.846863,333.611572 
	C252.407486,333.864349 251.747925,333.929108 251.009903,333.733337 
z"/>
<path fill="#E29F5A" opacity="1.000000" stroke="none" 
	d="
M302.863342,423.088623 
	C302.396942,423.458862 301.566315,423.789948 300.388611,424.118042 
	C300.860718,423.759857 301.679901,423.404633 302.863342,423.088623 
z"/>
<path fill="#E29F5A" opacity="1.000000" stroke="none" 
	d="
M296.215942,348.057251 
	C296.696381,347.949677 297.211182,348.120483 297.904633,348.504059 
	C297.472260,348.589752 296.861298,348.462677 296.215942,348.057251 
z"/>
<path fill="#E29F5A" opacity="1.000000" stroke="none" 
	d="
M241.035156,336.798645 
	C240.985123,336.389862 241.226425,335.862610 241.697266,335.157898 
	C241.726700,335.546997 241.526596,336.113586 241.035156,336.798645 
z"/>
<path fill="#E29F5A" opacity="1.000000" stroke="none" 
	d="
M295.008545,346.407471 
	C295.372192,346.503113 295.773895,346.888580 296.186890,347.564178 
	C295.814301,347.468658 295.430450,347.082947 295.008545,346.407471 
z"/>
<path fill="#E29F5A" opacity="1.000000" stroke="none" 
	d="
M287.056610,338.306946 
	C287.419464,338.423645 287.806061,338.868195 288.299957,339.598755 
	C287.964966,339.468109 287.522644,339.051453 287.056610,338.306946 
z"/>
<path fill="#E29F5A" opacity="1.000000" stroke="none" 
	d="
M247.159409,333.441589 
	C247.449585,333.215637 247.891586,333.169647 248.649506,333.242859 
	C248.414017,333.448578 247.862625,333.535034 247.159409,333.441589 
z"/>
<path fill="#E29F5A" opacity="1.000000" stroke="none" 
	d="
M242.190689,334.835449 
	C242.126541,334.638733 242.291412,334.346436 242.705231,333.988647 
	C242.879913,334.263428 242.701752,334.535675 242.190689,334.835449 
z"/>
<path fill="#E29F5A" opacity="1.000000" stroke="none" 
	d="
M291.155548,343.021912 
	C291.368744,342.973022 291.656128,343.193176 292.022034,343.676270 
	C291.810272,343.723053 291.520020,343.506989 291.155548,343.021912 
z"/>
<path fill="#E29F5A" opacity="1.000000" stroke="none" 
	d="
M292.184509,344.160583 
	C292.383026,344.072540 292.707397,344.246368 293.188446,344.658020 
	C293.000214,344.738098 292.655304,344.580292 292.184509,344.160583 
z"/>
<path fill="#E29F5A" opacity="1.000000" stroke="none" 
	d="
M242.844177,333.214111 
	C243.067688,332.965912 243.268723,332.957123 243.749939,333.061523 
	C243.891724,333.484589 243.666000,333.705109 243.114838,333.883789 
	C242.876694,333.931366 242.821701,333.453552 242.844177,333.214111 
z"/>
<path fill="#076B7C" opacity="1.000000" stroke="none" 
	d="
M254.038895,212.050949 
	C256.823639,215.730331 259.608368,219.409714 262.658051,223.333359 
	C258.715607,227.602524 254.508179,231.627426 249.303009,236.606796 
	C248.513184,230.828857 247.765762,225.361130 247.254211,219.232742 
	C249.673019,216.398361 251.855957,214.224655 254.038895,212.050949 
z"/>
<path fill="#2D5B61" opacity="1.000000" stroke="none" 
	d="
M250.838776,290.873322 
	C250.846100,290.463654 250.853409,290.053955 250.910828,289.341217 
	C267.321045,294.988190 283.685883,300.925354 300.032715,306.911621 
	C301.410461,307.416168 302.667511,308.250183 304.167938,309.201294 
	C303.854950,309.645050 303.354675,309.818665 302.134247,309.846558 
	C296.438232,307.769196 291.499268,305.734222 286.474915,303.938202 
	C282.380066,302.474426 278.182983,301.296600 273.692810,299.846100 
	C267.911255,297.786591 262.468109,295.872925 256.845978,293.718689 
	C256.102386,293.310089 255.537811,293.142059 254.742706,292.969208 
	C254.512192,292.964386 254.051666,292.940430 253.838654,292.695007 
	C252.696701,291.924133 251.767731,291.398743 250.838776,290.873322 
z"/>
<path fill="#F6F4F1" opacity="1.000000" stroke="none" 
	d="
M254.088608,211.779633 
	C251.855957,214.224655 249.673019,216.398361 247.232834,218.782257 
	C245.997040,218.998718 245.018509,219.005005 243.677475,219.061157 
	C242.895752,216.016556 242.476517,212.922104 242.125183,209.403595 
	C245.923096,209.628891 249.653152,210.278229 253.805237,210.945740 
	C254.197601,211.145370 254.167953,211.326859 254.088608,211.779633 
z"/>
<path fill="#3DA09C" opacity="1.000000" stroke="none" 
	d="
M284.737671,332.878876 
	C283.474030,333.034058 282.526306,332.943695 281.234558,332.728455 
	C283.643555,332.048431 286.396606,331.493286 289.585938,330.998596 
	C288.365997,331.583801 286.709808,332.108582 284.737671,332.878876 
z"/>
<path fill="#2D5B61" opacity="1.000000" stroke="none" 
	d="
M305.967041,310.636383 
	C305.678070,310.829346 305.429016,310.666656 305.219055,310.149384 
	C305.513458,309.947174 305.763062,310.109161 305.967041,310.636383 
z"/>
<path fill="#3DA09C" opacity="1.000000" stroke="none" 
	d="
M290.896606,330.750549 
	C290.988647,330.912292 290.543549,331.127991 290.299255,331.091431 
	C290.304840,330.899536 290.554718,330.744171 290.896606,330.750549 
z"/>
<path fill="#454849" opacity="1.000000" stroke="none" 
	d="
M119.112740,268.071808 
	C119.138336,266.909149 119.163933,265.746460 119.063385,264.322845 
	C117.801712,253.759201 116.634102,243.459885 115.543274,233.152466 
	C114.936035,227.414612 114.456673,221.663193 113.884132,215.537430 
	C122.175941,214.664719 130.031204,213.840088 137.885971,213.010742 
	C149.902206,211.741974 161.912170,210.410431 173.935806,209.216385 
	C185.474426,208.070541 197.030670,207.102936 208.572052,205.983673 
	C214.503113,205.408493 220.445572,204.849670 226.332245,203.951675 
	C230.600937,203.300461 232.422684,205.053757 232.859421,209.070267 
	C233.861633,218.286911 234.943344,227.494919 235.993607,236.706345 
	C237.605865,250.847092 239.126114,264.999237 240.874527,279.123138 
	C241.634979,285.266266 241.100784,286.128265 235.371979,287.070374 
	C218.387283,289.863525 201.433670,292.845459 184.451233,295.652771 
	C165.349213,298.810516 146.231003,301.870697 127.111618,304.921814 
	C126.018005,305.096344 124.850235,304.806122 123.401245,304.711548 
	C122.427986,296.540527 121.473679,288.528625 120.236298,280.217651 
	C119.763672,278.193176 119.574112,276.467743 119.226753,274.415100 
	C119.068954,274.087921 119.089203,274.126923 119.416382,274.068939 
	C123.233910,271.811127 121.291374,270.310944 119.076736,268.651672 
	C119.075119,268.457764 119.112740,268.071808 119.112740,268.071808 
M178.716263,283.095428 
	C180.523468,282.882019 182.334976,282.699615 184.137177,282.450134 
	C194.784088,280.976257 205.404938,279.273468 216.082733,278.077820 
	C223.163010,277.284973 223.980804,276.533600 222.198563,269.207642 
	C220.161194,269.207642 218.009766,268.968994 215.928223,269.249268 
	C207.246338,270.418243 198.593719,271.803040 189.915085,272.997772 
	C174.840637,275.072998 159.756561,277.078735 144.672623,279.084351 
	C141.141037,279.553864 139.590759,281.134796 139.962952,285.011627 
	C140.370789,289.259644 143.309128,288.201599 145.440826,287.922302 
	C156.258163,286.504974 167.041031,284.824432 178.716263,283.095428 
M195.145279,217.051224 
	C174.187515,219.407501 153.229767,221.763763 132.456345,224.099304 
	C131.568756,232.362534 132.276917,232.982422 140.244919,231.922333 
	C157.770340,229.590622 175.295853,227.259506 192.824844,224.954788 
	C198.560532,224.200638 199.386536,222.215714 195.145279,217.051224 
M146.761993,250.094452 
	C144.138336,250.418640 141.512314,250.724808 138.891602,251.071304 
	C135.015579,251.583771 135.773239,254.710342 136.289429,256.844055 
	C136.582153,258.054077 138.870377,259.628387 140.206406,259.579407 
	C144.140076,259.435211 148.049927,258.580994 151.963898,257.971344 
	C161.225693,256.528687 170.484482,255.066757 179.602188,253.634964 
	C180.255508,246.471146 180.244980,246.370728 174.256226,246.998428 
	C165.383118,247.928391 156.526718,249.017578 146.761993,250.094452 
M149.308945,272.931396 
	C157.414703,271.484711 165.520462,270.038055 174.233734,268.482971 
	C173.695923,265.465332 173.227036,262.834412 172.735611,260.077087 
	C162.930069,261.747131 153.814346,263.299469 144.698746,264.852325 
	C137.277496,266.116516 137.277542,266.116821 139.853882,274.092560 
	C142.641556,273.736786 145.538391,273.367065 149.308945,272.931396 
M157.595322,243.139130 
	C158.289505,236.368332 157.114426,234.482315 152.569260,235.116653 
	C147.827576,235.778412 143.102219,236.579498 138.346359,237.110367 
	C134.375946,237.553558 133.693069,239.866653 134.024612,243.312408 
	C134.399933,247.213470 137.262848,246.081329 139.261307,245.895615 
	C145.176529,245.345993 151.060059,244.455246 157.595322,243.139130 
M162.904724,233.443176 
	C162.840652,236.108948 162.453995,238.841324 162.979355,241.385376 
	C163.086960,241.906494 166.611176,241.722046 168.560516,241.862839 
	C168.816116,241.405350 169.071716,240.947845 169.327316,240.490341 
	C166.188950,238.847580 171.094727,232.164917 162.904724,233.443176 
z"/>
<path fill="#444849" opacity="1.000000" stroke="none" 
	d="
M250.435760,290.908020 
	C251.767731,291.398743 252.696701,291.924133 253.410706,292.715363 
	C212.043152,299.998016 170.890533,307.014893 129.737930,314.031738 
	C135.519119,317.977600 141.446182,320.795715 147.411575,323.530212 
	C147.919098,323.762878 148.690109,323.481903 149.325302,323.365967 
	C165.596222,320.396637 181.863159,317.405457 198.135437,314.443481 
	C213.757812,311.599762 229.400742,308.865967 245.005096,305.927063 
	C254.708878,304.099457 264.357727,301.980286 274.031250,299.992004 
	C278.182983,301.296600 282.380066,302.474426 286.474915,303.938202 
	C291.499268,305.734222 296.438232,307.769196 301.736694,309.879883 
	C291.753876,312.351227 281.494263,314.880280 271.133118,316.884399 
	C252.278961,320.531281 233.365814,323.873474 214.474869,327.329651 
	C198.352310,330.279358 182.229675,333.229065 166.095123,336.111847 
	C164.908859,336.323792 163.430923,336.374542 162.416977,335.856934 
	C149.243546,329.132172 136.127991,322.293976 123.005806,315.469055 
	C122.436447,315.172943 121.943771,314.729370 121.301102,313.027039 
	C164.211655,305.665619 207.122208,298.304169 250.435760,290.908020 
M247.945465,317.992706 
	C248.762650,317.643646 249.579834,317.294556 251.003418,316.686432 
	C243.760040,312.897491 237.335083,309.959869 229.306564,311.985840 
	C220.148926,314.296753 210.733017,315.584137 201.429352,317.316376 
	C201.310684,317.956268 201.192001,318.596161 201.073334,319.236053 
	C205.911774,320.792419 210.890533,323.977631 215.560257,323.575409 
	C226.177673,322.660889 236.643250,319.983734 247.945465,317.992706 
z"/>
<path fill="#E54930" opacity="1.000000" stroke="none" 
	d="
M324.907623,114.244514 
	C327.642334,118.695938 331.078979,122.870178 332.968567,127.655327 
	C337.164917,138.282196 335.974762,148.657181 329.454376,158.250092 
	C329.103699,158.766022 329.064667,159.493790 328.815674,160.474457 
	C327.330688,161.910187 325.815735,162.891098 324.504944,164.094421 
	C309.416382,177.945679 286.123291,175.437439 274.415833,158.689545 
	C273.568451,157.477295 272.543579,156.389084 271.294128,155.127411 
	C270.986969,155.011642 271.053040,155.033630 271.053040,155.033630 
	C270.318207,151.812744 269.641174,148.577301 268.834259,145.374573 
	C267.763214,141.123550 264.256958,143.211517 261.767059,142.843475 
	C259.194214,142.463165 257.044067,142.654602 256.355347,146.169525 
	C254.946335,153.360275 251.478760,159.519791 245.888260,164.422028 
	C231.067581,177.418152 209.587357,175.584305 197.172379,160.237061 
	C196.454285,159.349380 195.589172,158.580658 194.449966,157.675079 
	C192.740738,152.533356 190.814804,147.547791 190.126984,142.396912 
	C188.808838,132.525772 192.795395,124.115944 199.238495,116.110588 
	C208.248840,107.829323 218.021713,104.216431 229.698944,106.780563 
	C230.787659,107.019630 232.087631,106.296669 233.542358,106.136063 
	C236.197220,107.522911 238.599228,108.794098 241.116226,110.381523 
	C250.395126,117.018776 255.687805,125.832306 257.330780,136.569168 
	C267.157166,137.363876 267.073792,137.335327 270.003510,128.781006 
	C270.907715,126.140831 272.352997,123.677513 273.641174,121.179947 
	C274.678223,119.169228 275.851929,117.228966 277.309082,115.150620 
	C285.381622,109.364471 293.550140,105.428940 303.627441,105.846977 
	C311.888031,106.189659 318.331818,110.152107 324.907623,114.244514 
M288.643951,115.252060 
	C276.931183,123.103287 272.585571,132.696823 275.020233,145.328445 
	C277.181000,156.539062 287.198853,165.546783 299.007874,166.897354 
	C309.889343,168.141830 321.353607,161.725342 326.538361,151.400223 
	C327.060455,150.186279 327.823608,149.018326 328.065369,147.750900 
	C329.596924,139.721741 330.726654,131.716309 324.249329,124.207321 
	C320.519928,117.990585 315.115784,114.234138 307.368164,112.505638 
	C301.095795,111.528038 294.953705,111.525948 288.643951,115.252060 
M198.357666,128.502167 
	C195.958588,134.276535 193.310577,140.040970 197.689865,146.875168 
	C199.944016,157.986099 210.586716,166.607285 222.511932,166.982376 
	C233.482635,167.327438 244.225815,160.545593 248.827103,150.370407 
	C253.219391,140.657440 250.943069,128.173279 243.327133,120.206688 
	C230.051926,106.320221 205.204376,110.814247 198.357666,128.502167 
z"/>
<path fill="#572927" opacity="1.000000" stroke="none" 
	d="
M251.896484,190.145126 
	C245.259460,188.376907 239.532135,177.497696 242.145020,171.328354 
	C242.551590,170.368347 243.951569,169.829086 245.294464,169.582581 
	C248.624100,179.358170 271.382904,181.475769 278.435547,172.568420 
	C279.222778,171.574173 279.570618,170.232056 280.122223,169.051254 
	C281.428802,170.836807 283.710510,172.542740 283.863983,174.422440 
	C284.378967,180.729401 281.955811,186.053772 276.043884,189.673126 
	C267.544922,187.960632 259.659332,186.762680 251.896484,190.145126 
z"/>
<path fill="#F6F4F1" opacity="1.000000" stroke="none" 
	d="
M279.775269,168.893341 
	C279.570618,170.232056 279.222778,171.574173 278.435547,172.568420 
	C271.382904,181.475769 248.624100,179.358170 245.623077,169.724869 
	C247.032593,169.190475 248.646576,168.524185 249.977753,168.889206 
	C258.602905,171.254272 267.111755,172.364822 275.637299,168.413300 
	C276.636566,167.950150 278.152130,168.601013 279.775269,168.893341 
z"/>
<path fill="#E0766E" opacity="1.000000" stroke="none" 
	d="
M251.934830,190.510956 
	C259.659332,186.762680 267.544922,187.960632 275.722778,189.789642 
	C269.974731,195.675461 257.714081,196.089523 251.934830,190.510956 
z"/>
<path fill="#E0766E" opacity="1.000000" stroke="none" 
	d="
M270.988922,154.976868 
	C270.572510,155.502563 270.121704,156.570251 269.740814,156.545868 
	C265.404327,156.268341 261.078522,155.824097 257.147156,155.461090 
	C259.209961,151.742737 264.152405,151.126846 270.724304,154.874756 
	C271.053040,155.033630 270.986969,155.011642 270.988922,154.976868 
z"/>
<path fill="#7D3831" opacity="1.000000" stroke="none" 
	d="
M241.001251,110.065285 
	C238.599228,108.794098 236.197220,107.522911 233.348358,105.827927 
	C225.993561,99.900162 219.085587,94.396194 211.922089,88.688629 
	C204.872147,93.537109 202.190826,101.396385 199.459503,109.224304 
	C197.340149,104.096313 195.220810,98.968323 193.070267,93.486908 
	C207.422821,71.147873 227.906357,58.757599 253.818222,56.137695 
	C280.788971,53.410728 303.899567,62.262062 322.477936,82.157494 
	C325.967987,85.894966 328.689606,90.350075 331.880981,94.803223 
	C329.672241,101.222710 327.348389,107.313011 324.966064,113.823914 
	C318.331818,110.152107 311.888031,106.189659 303.627441,105.846977 
	C293.550140,105.428940 285.381622,109.364471 276.842712,115.135735 
	C274.546051,115.180595 273.034485,115.292946 271.577820,115.060791 
	C261.379272,113.435478 251.192078,111.738998 241.001251,110.065285 
z"/>
<path fill="#7D3B32" opacity="1.000000" stroke="none" 
	d="
M338.523621,94.152969 
	C338.072937,94.451843 337.312592,94.708183 336.229218,94.919472 
	C336.675446,94.619759 337.444702,94.365089 338.523621,94.152969 
z"/>
<path fill="#FBC2A1" opacity="1.000000" stroke="none" 
	d="
M199.381195,109.634827 
	C202.190826,101.396385 204.872147,93.537109 211.922089,88.688629 
	C219.085587,94.396194 225.993561,99.900162 233.095520,105.712257 
	C232.087631,106.296669 230.787659,107.019630 229.698944,106.780563 
	C218.021713,104.216431 208.248840,107.829323 199.402496,115.803238 
	C199.160477,113.947121 199.231689,111.996231 199.381195,109.634827 
z"/>
<path fill="#F8F9FA" opacity="1.000000" stroke="none" 
	d="
M378.000610,170.000763 
	C377.901398,170.033417 377.801575,170.065292 377.850281,170.047974 
	C377.998779,169.998779 378.000000,170.000000 378.000610,170.000763 
z"/>
<path fill="#F8F9FA" opacity="1.000000" stroke="none" 
	d="
M373.022766,168.030151 
	C372.902893,168.066406 372.747925,168.065231 372.752350,167.993820 
	C372.911743,167.923584 372.987640,167.992706 373.022766,168.030151 
z"/>
<path fill="#767779" opacity="1.000000" stroke="none" 
	d="
M346.756714,113.268707 
	C346.699829,125.689880 346.345398,138.380783 346.017273,151.541656 
	C345.699463,151.133743 345.030487,150.244705 345.060211,149.379654 
	C345.470337,137.430649 345.976471,125.484947 346.756714,113.268707 
z"/>
<path fill="#767779" opacity="1.000000" stroke="none" 
	d="
M348.929840,103.974045 
	C348.977753,105.585808 348.760803,107.058205 348.283203,108.793686 
	C348.236664,107.316071 348.450836,105.575378 348.929840,103.974045 
z"/>
<path fill="#767779" opacity="1.000000" stroke="none" 
	d="
M347.770813,109.212250 
	C347.921234,110.203720 347.778076,111.415756 347.334137,112.836761 
	C347.181335,111.841431 347.329285,110.637123 347.770813,109.212250 
z"/>
<path fill="#767779" opacity="1.000000" stroke="none" 
	d="
M346.086578,152.154449 
	C346.282440,152.058487 346.517242,152.228363 346.772156,152.670502 
	C346.546051,152.794235 346.323792,152.620087 346.086578,152.154449 
z"/>
<path fill="#EFB428" opacity="1.000000" stroke="none" 
	d="
M357.946014,120.686279 
	C357.307800,129.421112 356.588806,137.756409 355.864075,146.515045 
	C355.858337,146.938370 355.695190,147.209045 355.474426,147.594635 
	C353.878235,148.606918 352.502808,149.233597 351.127350,149.860275 
	C351.127350,149.860275 351.059509,149.942291 351.075806,149.511810 
	C348.557190,136.994858 349.541077,125.017090 352.203979,113.091194 
	C354.504761,109.720589 356.003937,110.866005 356.847992,114.042000 
	C357.387085,116.070427 357.539490,118.201622 357.946014,120.686279 
z"/>
<path fill="#52411E" opacity="1.000000" stroke="none" 
	d="
M351.872070,113.257881 
	C349.541077,125.017090 348.557190,136.994858 351.128204,149.502625 
	C350.385010,148.539505 349.125092,147.227783 348.902954,145.759125 
	C347.244720,134.795212 347.409363,123.935944 351.872070,113.257881 
z"/>
<path fill="#52411E" opacity="1.000000" stroke="none" 
	d="
M351.137115,150.231445 
	C352.502808,149.233597 353.878235,148.606918 355.482056,147.752472 
	C355.443695,152.182968 354.783905,152.627960 351.137115,150.231445 
z"/>
<path fill="#EBB127" opacity="1.000000" stroke="none" 
	d="
M166.432632,140.985458 
	C166.320160,131.908630 166.263672,122.987129 166.201477,113.622971 
	C166.195755,113.180305 166.169479,113.161598 166.417938,112.925461 
	C166.824692,111.811974 166.982986,110.934624 167.141296,110.057266 
	C167.141281,110.057266 167.035355,110.035301 167.309174,109.897293 
	C167.789490,109.219521 167.995987,108.679764 168.202469,108.140007 
	C168.595749,108.030922 168.989014,107.921837 169.832550,107.959015 
	C170.282806,108.105270 170.713089,108.243080 170.713089,108.243080 
	C170.713089,108.243080 170.945053,108.242134 170.869553,108.509827 
	C171.091080,109.248398 171.388107,109.719276 171.685150,110.190170 
	C171.685135,110.190170 171.920837,110.211349 171.822388,110.624100 
	C172.412445,119.989738 173.100983,128.942612 173.789505,137.895493 
	C173.789505,137.895493 173.844803,138.016754 173.619888,138.252838 
	C172.883636,140.964630 172.372299,143.440369 171.860962,145.916092 
	C171.860962,145.916092 171.985794,145.991577 171.695068,146.111664 
	C171.192780,146.767273 170.981216,147.302795 170.769669,147.838318 
	C170.769669,147.838318 170.873260,147.857849 170.562958,147.827057 
	C169.868073,147.819733 169.483490,147.843201 169.098923,147.866669 
	C169.098923,147.866669 169.013580,147.999985 168.984222,147.646027 
	C168.394562,146.470322 167.834244,145.648605 167.273926,144.826889 
	C167.273911,144.826889 167.004272,144.999084 167.151382,144.559647 
	C166.993332,143.231369 166.688171,142.342514 166.383011,141.453674 
	C166.383011,141.453674 166.488617,141.140793 166.432632,140.985458 
z"/>
<path fill="#52411E" opacity="1.000000" stroke="none" 
	d="
M174.129395,137.651291 
	C173.100983,128.942612 172.412445,119.989738 171.704254,110.631828 
	C172.727188,113.196762 174.472412,116.122139 174.664291,119.146088 
	C175.048721,125.204567 174.583633,131.316956 174.129395,137.651291 
z"/>
<path fill="#52411E" opacity="1.000000" stroke="none" 
	d="
M172.217590,145.765564 
	C172.372299,143.440369 172.883636,140.964630 173.611389,138.186768 
	C173.409943,140.461426 172.992081,143.038239 172.217590,145.765564 
z"/>
<path fill="#52411E" opacity="1.000000" stroke="none" 
	d="
M167.190430,145.190460 
	C167.834244,145.648605 168.394562,146.470322 169.035065,147.585144 
	C168.445816,147.103485 167.776367,146.328751 167.190430,145.190460 
z"/>
<path fill="#52411E" opacity="1.000000" stroke="none" 
	d="
M166.850952,110.250290 
	C166.982986,110.934624 166.824692,111.811974 166.412842,112.911247 
	C166.293076,112.236549 166.426849,111.339935 166.850952,110.250290 
z"/>
<path fill="#52411E" opacity="1.000000" stroke="none" 
	d="
M166.277863,141.840454 
	C166.688171,142.342514 166.993332,143.231369 167.288666,144.477448 
	C166.910156,143.965546 166.541443,143.096390 166.277863,141.840454 
z"/>
<path fill="#52411E" opacity="1.000000" stroke="none" 
	d="
M167.907532,108.253220 
	C167.995987,108.679764 167.789490,109.219521 167.348175,109.934776 
	C167.279755,109.528999 167.446182,108.947716 167.907532,108.253220 
z"/>
<path fill="#52411E" opacity="1.000000" stroke="none" 
	d="
M170.781754,108.005951 
	C170.713089,108.243080 170.282806,108.105270 170.137543,107.932419 
	C170.231476,107.463867 170.470673,107.168175 170.709885,106.872490 
	C170.756729,107.171265 170.803574,107.470047 170.781754,108.005951 
z"/>
<path fill="#52411E" opacity="1.000000" stroke="none" 
	d="
M171.759155,109.873146 
	C171.388107,109.719276 171.091080,109.248398 170.754837,108.494354 
	C171.088120,108.659515 171.460632,109.107826 171.759155,109.873146 
z"/>
<path fill="#52411E" opacity="1.000000" stroke="none" 
	d="
M169.203720,148.122009 
	C169.483490,147.843201 169.868073,147.819733 170.540817,147.779221 
	C170.322174,147.967224 169.815338,148.172287 169.203720,148.122009 
z"/>
<path fill="#52411E" opacity="1.000000" stroke="none" 
	d="
M171.068115,147.731583 
	C170.981216,147.302795 171.192780,146.767273 171.641724,146.061920 
	C171.708282,146.469666 171.537430,147.047256 171.068115,147.731583 
z"/>
<path fill="#FAC6A5" opacity="1.000000" stroke="none" 
	d="
M118.924408,267.746063 
	C119.112740,268.071808 119.075119,268.457764 119.053467,269.090637 
	C119.050941,271.191345 119.070068,272.659119 119.089203,274.126923 
	C119.089203,274.126923 119.068954,274.087921 119.089943,274.100861 
	C117.352997,274.642700 115.595062,275.171600 113.030968,275.943024 
	C114.303009,273.751892 115.239235,272.139191 116.168045,270.539276 
	C112.708954,270.539276 109.612900,270.539276 106.241089,270.251343 
	C107.719261,264.543823 114.087051,263.275787 118.924408,267.746063 
z"/>
<path fill="#E29F5A" opacity="1.000000" stroke="none" 
	d="
M294.950684,333.742828 
	C294.377594,333.381165 293.831696,332.642639 293.142303,331.672058 
	C293.447845,331.305237 293.896942,331.170471 294.699036,331.071228 
	C295.027313,331.859802 295.002594,332.612854 294.950684,333.742828 
z"/>
<path fill="#E29F5A" opacity="1.000000" stroke="none" 
	d="
M299.860779,339.829254 
	C299.684235,339.876801 299.410950,339.689728 299.039246,339.268951 
	C299.215210,339.221741 299.489594,339.408173 299.860779,339.829254 
z"/>
<path fill="#E29F5A" opacity="1.000000" stroke="none" 
	d="
M295.985168,330.874207 
	C295.976410,330.655670 296.225098,330.421204 296.735626,330.194946 
	C296.745850,330.421509 296.494232,330.639862 295.985168,330.874207 
z"/>
<path fill="#626667" opacity="1.000000" stroke="none" 
	d="
M273.692810,299.846130 
	C264.357727,301.980286 254.708878,304.099457 245.005096,305.927063 
	C229.400742,308.865967 213.757812,311.599762 198.135437,314.443481 
	C181.863159,317.405457 165.596222,320.396637 149.325302,323.365967 
	C148.690109,323.481903 147.919098,323.762878 147.411575,323.530212 
	C141.446182,320.795715 135.519119,317.977600 129.737930,314.031738 
	C170.890533,307.014893 212.043152,299.998016 253.623718,292.960815 
	C254.051666,292.940430 254.512192,292.964386 254.918976,293.215637 
	C255.892181,293.630981 256.458588,293.795135 257.024994,293.959290 
	C262.468109,295.872925 267.911255,297.786591 273.692810,299.846130 
z"/>
<path fill="#444849" opacity="1.000000" stroke="none" 
	d="
M256.845978,293.718689 
	C256.458588,293.795135 255.892181,293.630981 255.149506,293.220459 
	C255.537811,293.142059 256.102386,293.310089 256.845978,293.718689 
z"/>
<path fill="#767779" opacity="1.000000" stroke="none" 
	d="
M178.276123,283.165771 
	C167.041031,284.824432 156.258163,286.504974 145.440826,287.922302 
	C143.309128,288.201599 140.370789,289.259644 139.962952,285.011627 
	C139.590759,281.134796 141.141037,279.553864 144.672623,279.084351 
	C159.756561,277.078735 174.840637,275.072998 189.915085,272.997772 
	C198.593719,271.803040 207.246338,270.418243 215.928223,269.249268 
	C218.009766,268.968994 220.161194,269.207642 222.198563,269.207642 
	C223.980804,276.533600 223.163010,277.284973 216.082733,278.077820 
	C205.404938,279.273468 194.784088,280.976257 184.137177,282.450134 
	C182.334976,282.699615 180.523468,282.882019 178.276123,283.165771 
z"/>
<path fill="#767779" opacity="1.000000" stroke="none" 
	d="
M195.559174,217.120605 
	C199.386536,222.215714 198.560532,224.200638 192.824844,224.954788 
	C175.295853,227.259506 157.770340,229.590622 140.244919,231.922333 
	C132.276917,232.982422 131.568756,232.362534 132.456345,224.099304 
	C153.229767,221.763763 174.187515,219.407501 195.559174,217.120605 
z"/>
<path fill="#767779" opacity="1.000000" stroke="none" 
	d="
M147.212585,250.066711 
	C156.526718,249.017578 165.383118,247.928391 174.256226,246.998428 
	C180.244980,246.370728 180.255508,246.471146 179.602188,253.634964 
	C170.484482,255.066757 161.225693,256.528687 151.963898,257.971344 
	C148.049927,258.580994 144.140076,259.435211 140.206406,259.579407 
	C138.870377,259.628387 136.582153,258.054077 136.289429,256.844055 
	C135.773239,254.710342 135.015579,251.583771 138.891602,251.071304 
	C141.512314,250.724808 144.138336,250.418640 147.212585,250.066711 
z"/>
<path fill="#767779" opacity="1.000000" stroke="none" 
	d="
M148.872086,272.964386 
	C145.538391,273.367065 142.641556,273.736786 139.853882,274.092560 
	C137.277542,266.116821 137.277496,266.116516 144.698746,264.852325 
	C153.814346,263.299469 162.930069,261.747131 172.735611,260.077087 
	C173.227036,262.834412 173.695923,265.465332 174.233734,268.482971 
	C165.520462,270.038055 157.414703,271.484711 148.872086,272.964386 
z"/>
<path fill="#767779" opacity="1.000000" stroke="none" 
	d="
M157.275665,243.418518 
	C151.060059,244.455246 145.176529,245.345993 139.261307,245.895615 
	C137.262848,246.081329 134.399933,247.213470 134.024612,243.312408 
	C133.693069,239.866653 134.375946,237.553558 138.346359,237.110367 
	C143.102219,236.579498 147.827576,235.778412 152.569260,235.116653 
	C157.114426,234.482315 158.289505,236.368332 157.275665,243.418518 
z"/>
<path fill="#767779" opacity="1.000000" stroke="none" 
	d="
M163.309601,233.311493 
	C171.094727,232.164917 166.188950,238.847580 169.327316,240.490341 
	C169.071716,240.947845 168.816116,241.405350 168.560516,241.862839 
	C166.611176,241.722046 163.086960,241.906494 162.979355,241.385376 
	C162.453995,238.841324 162.840652,236.108948 163.309601,233.311493 
z"/>
<path fill="#F4C4A5" opacity="1.000000" stroke="none" 
	d="
M119.416382,274.068939 
	C119.070068,272.659119 119.050941,271.191345 119.055084,269.284546 
	C121.291374,270.310944 123.233910,271.811127 119.416382,274.068939 
z"/>
<path fill="#626667" opacity="1.000000" stroke="none" 
	d="
M247.558014,318.007874 
	C236.643250,319.983734 226.177673,322.660889 215.560257,323.575409 
	C210.890533,323.977631 205.911774,320.792419 201.073334,319.236053 
	C201.192001,318.596161 201.310684,317.956268 201.429352,317.316376 
	C210.733017,315.584137 220.148926,314.296753 229.306564,311.985840 
	C237.335083,309.959869 243.760040,312.897491 251.003418,316.686432 
	C249.579834,317.294556 248.762650,317.643646 247.558014,318.007874 
z"/>
<path fill="#F9C4A4" opacity="1.000000" stroke="none" 
	d="
M199.001755,128.223541 
	C205.204376,110.814247 230.051926,106.320221 243.327133,120.206688 
	C250.943069,128.173279 253.219391,140.657440 248.827103,150.370407 
	C244.225815,160.545593 233.482635,167.327438 222.511932,166.982376 
	C210.586716,166.607285 199.944016,157.986099 197.790054,146.050812 
	C198.260757,139.558823 198.631256,133.891190 199.001755,128.223541 
M215.087952,138.758331 
	C215.047577,141.241043 214.798691,143.741638 215.010025,146.202744 
	C215.456970,151.408249 218.865875,154.761215 223.310699,156.421356 
	C227.595413,158.021683 232.048508,157.629639 235.674042,153.900970 
	C241.042694,148.379654 240.514069,141.776611 233.621338,133.135056 
	C227.577850,128.464218 222.941895,129.228531 216.236603,136.513504 
	C216.167099,136.671814 216.097610,136.830109 215.739319,137.294479 
	C215.444168,137.366287 215.239395,137.542831 215.087952,138.758331 
M227.328323,121.744286 
	C228.606049,121.512703 229.883774,121.281120 231.625824,120.965370 
	C225.678574,114.881584 218.090897,116.833023 214.122375,124.845718 
	C218.331497,123.822693 222.410706,122.831245 227.328323,121.744286 
z"/>
<path fill="#F9C4A4" opacity="1.000000" stroke="none" 
	d="
M325.971924,151.805618 
	C321.353607,161.725342 309.889343,168.141830 299.007874,166.897354 
	C287.198853,165.546783 277.181000,156.539062 275.020233,145.328445 
	C272.585571,132.696823 276.931183,123.103287 289.383301,115.138870 
	C296.057861,114.382973 301.993073,113.740265 307.928314,113.097549 
	C315.115784,114.234138 320.519928,117.990585 324.249786,125.027184 
	C324.824127,134.499908 325.398041,143.152756 325.971924,151.805618 
M307.997620,135.001419 
	C307.997620,135.001419 307.996918,135.088470 307.956665,134.369125 
	C302.031342,129.248489 298.222687,128.911972 291.409912,133.182312 
	C289.835449,136.285370 287.710571,139.235657 286.798431,142.522522 
	C284.749725,149.904922 290.386719,156.945282 297.961548,157.071152 
	C308.208618,157.241455 314.010406,146.594696 309.040192,136.269241 
	C308.663666,135.846634 308.287109,135.424026 307.997620,135.001419 
M303.644562,117.723335 
	C299.895935,116.656555 296.620850,116.918968 294.402069,120.828819 
	C300.126160,122.125854 305.565613,123.358398 311.005096,124.590935 
	C311.258362,124.230537 311.511658,123.870140 311.764923,123.509743 
	C309.308258,121.644287 306.851593,119.778839 303.644562,117.723335 
M312.442963,126.294510 
	C312.493256,126.238541 312.543579,126.182564 312.442963,126.294510 
z"/>
<path fill="#FBC2A1" opacity="1.000000" stroke="none" 
	d="
M241.116226,110.381523 
	C251.192078,111.738998 261.379272,113.435478 271.577820,115.060791 
	C273.034485,115.292946 274.546051,115.180595 276.498627,115.242554 
	C275.851929,117.228966 274.678223,119.169228 273.641174,121.179947 
	C272.352997,123.677513 270.907715,126.140831 270.003510,128.781006 
	C267.073792,137.335327 267.157166,137.363876 257.330780,136.569168 
	C255.687805,125.832306 250.395126,117.018776 241.116226,110.381523 
z"/>
<path fill="#765F59" opacity="1.000000" stroke="none" 
	d="
M326.255157,151.602921 
	C325.398041,143.152756 324.824127,134.499908 324.352173,125.376892 
	C330.726654,131.716309 329.596924,139.721741 328.065369,147.750900 
	C327.823608,149.018326 327.060455,150.186279 326.255157,151.602921 
z"/>
<path fill="#765F59" opacity="1.000000" stroke="none" 
	d="
M198.679718,128.362854 
	C198.631256,133.891190 198.260757,139.558823 197.772919,145.655548 
	C193.310577,140.040970 195.958588,134.276535 198.679718,128.362854 
z"/>
<path fill="#803D2E" opacity="1.000000" stroke="none" 
	d="
M307.648254,112.801590 
	C301.993073,113.740265 296.057861,114.382973 289.694122,114.974464 
	C294.953705,111.525948 301.095795,111.528038 307.648254,112.801590 
z"/>
<path fill="#F6F4F1" opacity="1.000000" stroke="none" 
	d="
M216.028122,136.988419 
	C216.097610,136.830109 216.167099,136.671814 216.501160,136.167999 
	C222.224396,133.244354 227.857529,132.115128 233.825699,133.768448 
	C240.514069,141.776611 241.042694,148.379654 235.674042,153.900970 
	C232.048508,157.629639 227.595413,158.021683 223.310699,156.421356 
	C218.865875,154.761215 215.456970,151.408249 215.010025,146.202744 
	C214.798691,143.741638 215.047577,141.241043 215.318283,138.239014 
	C215.727768,137.488602 215.887604,137.244843 216.028122,136.988419 
M234.478317,144.601181 
	C234.116348,141.038193 232.783844,138.137558 229.043381,137.041168 
	C224.954636,135.842697 220.962524,137.923950 219.909698,141.716858 
	C218.607574,146.407913 220.973190,150.887283 225.324982,151.970871 
	C229.981445,153.130310 233.047318,150.891541 234.478317,144.601181 
z"/>
<path fill="#3C2E25" opacity="1.000000" stroke="none" 
	d="
M226.909119,121.792038 
	C222.410706,122.831245 218.331497,123.822693 214.122375,124.845718 
	C218.090897,116.833023 225.678574,114.881584 231.625824,120.965370 
	C229.883774,121.281120 228.606049,121.512703 226.909119,121.792038 
z"/>
<path fill="#3C2E25" opacity="1.000000" stroke="none" 
	d="
M233.723511,133.451752 
	C227.857529,132.115128 222.224396,133.244354 216.402710,135.928070 
	C222.941895,129.228531 227.577850,128.464218 233.723511,133.451752 
z"/>
<path fill="#3C2E25" opacity="1.000000" stroke="none" 
	d="
M215.883728,137.141449 
	C215.887604,137.244843 215.727768,137.488602 215.336823,137.771912 
	C215.239395,137.542831 215.444168,137.366287 215.883728,137.141449 
z"/>
<path fill="#F6F4F1" opacity="1.000000" stroke="none" 
	d="
M308.930359,136.942581 
	C314.010406,146.594696 308.208618,157.241455 297.961548,157.071152 
	C290.386719,156.945282 284.749725,149.904922 286.798431,142.522522 
	C287.710571,139.235657 289.835449,136.285370 292.135590,133.134811 
	C297.906494,133.754364 302.951691,134.421417 307.996918,135.088470 
	C307.996918,135.088470 307.997620,135.001419 307.703369,135.271759 
	C307.916168,136.008942 308.423279,136.475754 308.930359,136.942581 
M296.170959,137.125458 
	C292.549072,139.003113 290.162598,142.117325 291.375519,145.976364 
	C292.127350,148.368301 294.861969,151.294495 297.135895,151.727859 
	C299.450531,152.168945 303.148804,150.504074 304.650391,148.543167 
	C306.030792,146.740540 306.112610,143.034943 305.298676,140.673676 
	C304.080292,137.139267 300.628296,136.255814 296.170959,137.125458 
z"/>
<path fill="#3C2E25" opacity="1.000000" stroke="none" 
	d="
M304.019745,117.818359 
	C306.851593,119.778839 309.308258,121.644287 311.764923,123.509743 
	C311.511658,123.870140 311.258362,124.230537 311.005096,124.590935 
	C305.565613,123.358398 300.126160,122.125854 294.402069,120.828819 
	C296.620850,116.918968 299.895935,116.656555 304.019745,117.818359 
z"/>
<path fill="#3C2E25" opacity="1.000000" stroke="none" 
	d="
M307.976807,134.728790 
	C302.951691,134.421417 297.906494,133.754364 292.403687,133.020905 
	C298.222687,128.911972 302.031342,129.248489 307.976807,134.728790 
z"/>
<path fill="#3C2E25" opacity="1.000000" stroke="none" 
	d="
M312.518433,126.210548 
	C312.543579,126.182564 312.493256,126.238541 312.518433,126.210548 
z"/>
<path fill="#3C2E25" opacity="1.000000" stroke="none" 
	d="
M308.985291,136.605911 
	C308.423279,136.475754 307.916168,136.008942 307.659851,135.271759 
	C308.287109,135.424026 308.663666,135.846634 308.985291,136.605911 
z"/>
<path fill="#2D2D2F" opacity="1.000000" stroke="none" 
	d="
M234.443054,144.969788 
	C233.047318,150.891541 229.981445,153.130310 225.324982,151.970871 
	C220.973190,150.887283 218.607574,146.407913 219.909698,141.716858 
	C220.962524,137.923950 224.954636,135.842697 229.043381,137.041168 
	C232.783844,138.137558 234.116348,141.038193 234.443054,144.969788 
z"/>
<path fill="#2D2D2F" opacity="1.000000" stroke="none" 
	d="
M296.568542,137.035507 
	C300.628296,136.255814 304.080292,137.139267 305.298676,140.673676 
	C306.112610,143.034943 306.030792,146.740540 304.650391,148.543167 
	C303.148804,150.504074 299.450531,152.168945 297.135895,151.727859 
	C294.861969,151.294495 292.127350,148.368301 291.375519,145.976364 
	C290.162598,142.117325 292.549072,139.003113 296.568542,137.035507 
z"/>
</svg>